<?xml version="1.0" encoding="UTF-8" standalone="no"?>
<svg
   xmlns:dc="http://purl.org/dc/elements/1.1/"
   xmlns:cc="http://creativecommons.org/ns#"
   xmlns:rdf="http://www.w3.org/1999/02/22-rdf-syntax-ns#"
   xmlns:svg="http://www.w3.org/2000/svg"
   xmlns="http://www.w3.org/2000/svg"
   xmlns:sodipodi="http://sodipodi.sourceforge.net/DTD/sodipodi-0.dtd"
   xmlns:inkscape="http://www.inkscape.org/namespaces/inkscape"
   width="16"
   height="16"
   viewBox="0 0 16 16"
   fill="currentColor"
   version="1.1"
   id="svg252"
   sodipodi:docname="connect.svg"
   inkscape:version="0.92.5 (2060ec1f9f, 2020-04-08)">
  <metadata
     id="metadata258">
    <rdf:RDF>
      <cc:Work
         rdf:about="">
        <dc:format>image/svg+xml</dc:format>
        <dc:type
           rdf:resource="http://purl.org/dc/dcmitype/StillImage" />
      </cc:Work>
    </rdf:RDF>
  </metadata>
  <defs
     id="defs256" />
  <sodipodi:namedview
     pagecolor="#ffffff"
     bordercolor="#666666"
     borderopacity="1"
     objecttolerance="10"
     gridtolerance="10"
     guidetolerance="10"
     inkscape:pageopacity="0"
     inkscape:pageshadow="2"
     inkscape:window-width="2488"
     inkscape:window-height="1376"
     id="namedview254"
     showgrid="false"
     inkscape:zoom="51.375"
     inkscape:cx="8"
     inkscape:cy="8"
     inkscape:window-x="72"
     inkscape:window-y="27"
     inkscape:window-maximized="1"
     inkscape:current-layer="svg252" />
  <path
     fill-rule="evenodd"
     clip-rule="evenodd"
     d="M2.006 8.267L.78 9.5 0 8.73l2.09-2.07.76.01 2.09 2.12-.76.76-1.167-1.18a5 5 0 0 0 9.4 1.983l.813.597a6 6 0 0 1-11.22-2.683zm10.99-.466L11.76 6.55l-.76.76 2.09 2.11.76.01 2.09-2.07-.75-.76-1.194 1.18a6 6 0 0 0-11.11-2.92l.81.594a5 5 0 0 1 9.3 2.346z"
     id="path250"
     style="fill:#4d4d4d" />
</svg>
